<svg xmlns="http://www.w3.org/2000/svg" xmlns:cc="http://web.resource.org/cc/" xmlns:svg="http://www.w3.org/2000/svg" xmlns:xlink="http://www.w3.org/1999/xlink" id="svg2424" width="32" height="32" version="1.0"><defs id="defs2426"><linearGradient id="linearGradient2190" x1="541.335" x2="606.912" y1="104.507" y2="303.14" gradientTransform="matrix(-0.3937741,0,0,0.393752,978.34967,416.9815)" gradientUnits="userSpaceOnUse" xlink:href="#path1082_2_"/><linearGradient id="path1082_2_" x1="112.499" x2="112.499" y1="6.137" y2="129.347" gradientTransform="translate(287,-83)" gradientUnits="userSpaceOnUse"><stop id="stop193" offset="0" stop-color="#fff" stop-opacity="0"/><stop id="stop195" offset="1" stop-color="#fff" stop-opacity=".275"/><midPointStop id="midPointStop197" offset="0" stop-color="#FFF"/><midPointStop id="midPointStop199" offset=".5" stop-color="#FFF"/><midPointStop id="midPointStop201" offset="1" stop-color="#000"/></linearGradient><linearGradient id="linearGradient3388"><stop id="stop3390" offset="0" stop-color="#000" stop-opacity="0"/><stop id="stop3392" offset="1" stop-color="#000" stop-opacity=".371"/></linearGradient><linearGradient id="linearGradient4346"><stop id="stop4348" offset="0" stop-color="#00bdec" stop-opacity="1"/><stop id="stop4350" offset="1" stop-color="#40bfde" stop-opacity="1"/></linearGradient><linearGradient id="linearGradient4352" x1="400.614" x2="616.486" y1="634.151" y2="666.978" gradientUnits="userSpaceOnUse" xlink:href="#linearGradient4346"/><linearGradient id="linearGradient5323"><stop id="stop5325" offset="0" stop-color="#6e6e6e" stop-opacity="1"/><stop id="stop5327" offset="1" stop-color="#4d4d4d" stop-opacity="1"/></linearGradient><linearGradient id="linearGradient5329" x1="291.836" x2="650.814" y1="238.082" y2="348.969" gradientUnits="userSpaceOnUse" xlink:href="#linearGradient5323"/><linearGradient id="linearGradient2216" x1="541.335" x2="606.912" y1="104.507" y2="303.14" gradientTransform="matrix(-0.3937741,0,0,0.393752,978.34967,416.9815)" gradientUnits="userSpaceOnUse" xlink:href="#path1082_2_"/></defs><metadata id="metadata2429"/><g id="layer1" transform="translate(-309.51781,-259.60123)"><g id="g2424" transform="matrix(1.3473684,0,0,1.3473684,-632.88236,-513.34366)"><g id="g2210" transform="matrix(0.125,0,0,0.125,615.71887,519.21715)"><path id="path2518" fill="#1793d1" fill-opacity="1" fill-rule="evenodd" stroke="none" stroke-dasharray="none" stroke-linecap="round" stroke-linejoin="round" stroke-miterlimit="10" stroke-opacity="1" stroke-width="1" d="M 764.75015,435.62318 C 756.29306,456.35771 752.13752,468.47084 742.72166,488.58901 C 748.49477,494.7085 754.61058,503.27765 766.11856,511.3263 C 756.19466,510.64216 744.33307,503.09582 738.0262,497.79178 C 725.9757,522.93702 708.06309,556.78261 669.75015,625.62318 C 699.85528,608.24296 723.19329,597.52272 744.94302,593.4308 C 744.0125,589.41975 743.51542,585.06076 743.55142,580.53529 L 743.57461,579.58436 C 744.05243,560.29195 754.09092,545.45692 765.9794,546.46424 C 777.86787,547.47156 787.12249,563.93331 786.64468,583.22572 C 786.55468,586.85963 786.1322,590.35133 785.41543,593.59315 C 806.9311,597.8037 830.04901,608.47618 859.75015,625.62318 C 853.89286,614.83948 848.64665,607.08273 843.65396,597.82475 C 835.78967,591.72939 829.54943,586.24762 810.85855,573.25257 C 822.35934,576.24095 829.13312,577.24831 835.55168,581.10212 C 784.78965,486.59209 782.15758,476.47346 764.75015,435.62318 z"/><path id="path2522" fill="#fff" fill-opacity=".166" fill-rule="evenodd" stroke="none" stroke-linecap="butt" stroke-linejoin="round" stroke-miterlimit="10" stroke-opacity="1" stroke-width="36.1" d="M 818.22607,548.55277 C 777.04464,492.65769 767.49922,447.60796 765.0814,436.85262 C 787.04877,487.52122 786.89873,488.14257 818.22607,548.55277 z"/><path id="path2520" fill="url(#linearGradient2190)" fill-opacity="1" fill-rule="evenodd" stroke="none" stroke-dasharray="none" stroke-linecap="round" stroke-linejoin="round" stroke-miterlimit="10" stroke-opacity="1" stroke-width=".714" d="M 765.12124,436.55089 C 764.08134,439.10743 762.92886,441.60974 761.96694,443.97277 C 760.88579,446.62862 759.83447,449.09447 758.81264,451.58019 C 757.79089,454.06594 756.84782,456.60772 755.84389,459.00206 C 754.8399,461.39652 753.90279,463.67099 752.87514,466.05285 C 751.84756,468.43462 750.81358,470.84129 749.72084,473.28917 C 749.49915,473.80943 749.20549,474.24651 748.97866,474.77355 C 748.08785,476.75518 747.15745,478.81677 746.19545,480.8966 C 745.0662,483.42371 743.97624,485.7132 742.67006,488.50402 C 748.44317,494.62351 754.54099,503.27763 766.04897,511.32628 C 756.12507,510.64214 744.33826,503.0854 738.03139,497.78136 C 736.49447,500.90008 734.97516,504.30127 733.20717,507.80089 C 732.14161,509.91015 730.84337,512.20996 729.68178,514.48058 C 728.92541,515.97954 728.44377,517.17458 727.64077,518.74816 C 727.60017,518.82696 727.49593,518.85471 727.45522,518.93371 C 726.43493,520.91336 723.18032,527.06417 719.8478,533.40636 C 717.3486,538.17539 714.995,542.75074 712.05483,548.25011 C 736.11521,534.67716 762.15262,515.27934 809.28139,532.10753 C 806.91431,527.62434 804.83098,523.44317 802.78725,519.49035 C 800.74355,515.53741 798.7984,511.85803 797.0353,508.35753 C 795.27234,504.8571 793.55041,501.46406 792.02553,498.338 C 790.50067,495.21201 789.08721,492.26151 787.75795,489.43175 C 786.42863,486.60205 785.22328,484.06467 784.04702,481.45324 C 782.87068,478.84184 781.77313,476.31688 780.70717,473.84582 C 779.6411,471.37462 778.73656,468.83267 777.73842,466.42394 C 777.17555,465.06569 776.62037,463.69979 776.0685,462.34191 C 775.65849,461.38151 775.17963,460.1543 774.76967,459.18761 C 771.81226,452.21398 768.75876,445.101 765.12124,436.55089 z"/></g></g></g></svg>